<svg width="36" height="38" viewBox="0 0 36 38" fill="none" xmlns="http://www.w3.org/2000/svg">
<path d="M16.5 21.1V0.800049H19.5V21.1H16.5ZM18 37.1C15.5333 37.1 13.2083 36.625 11.025 35.675C8.84167 34.725 6.93333 33.4334 5.3 31.8C3.66667 30.1667 2.375 28.2584 1.425 26.075C0.475 23.8917 0 21.5667 0 19.1C0 16.4334 0.566667 13.9417 1.7 11.625C2.83333 9.30838 4.43333 7.25005 6.5 5.45005L8.6 7.55005C6.83333 8.98338 5.45833 10.6917 4.475 12.675C3.49167 14.6584 3 16.7997 3 19.099C3 23.2664 4.45833 26.8084 7.375 29.725C10.2917 32.6417 13.8333 34.1 18 34.1C22.1786 34.1 25.7232 32.6417 28.634 29.725C31.5447 26.8084 33 23.2664 33 19.099C33 16.7997 32.5083 14.6417 31.525 12.625C30.5417 10.6084 29.2 8.91672 27.5 7.55005L29.65 5.45005C31.65 7.15005 33.2083 9.18338 34.325 11.55C35.4417 13.9167 36 16.4334 36 19.1C36 21.5667 35.525 23.8917 34.575 26.075C33.625 28.2584 32.3417 30.1667 30.725 31.8C29.1083 33.4334 27.2083 34.725 25.025 35.675C22.8417 36.625 20.5 37.1 18 37.1Z" fill="white"/>
</svg>
