<svg width="41" height="40" viewBox="0 0 41 40" fill="none" xmlns="http://www.w3.org/2000/svg">
<path d="M20.1001 36.8C18.9314 36.8 17.9308 36.3917 17.0985 35.575C16.2662 34.7583 15.8501 33.7659 15.8501 32.5978C15.8501 31.4296 16.2662 30.4296 17.0985 29.5978C17.9308 28.7659 18.9314 28.35 20.1001 28.35L21.3376 27.1629C21.6126 26.8876 21.936 26.6667 22.3079 26.5C22.6798 26.3333 23.0605 26.25 23.4501 26.25C24.2834 26.25 24.9834 26.5417 25.5501 27.125C26.1168 27.7083 26.4001 28.4121 26.4001 29.2362V30.15C26.4001 30.8167 26.6418 31.3917 27.1251 31.875C27.6084 32.3583 28.1834 32.6 28.8501 32.6C29.3769 32.6 29.851 32.4408 30.2724 32.1223C30.6938 31.8038 30.9923 31.3969 31.1679 30.9016L31.8001 29.15C32.1001 28.2833 32.6007 27.5829 33.302 27.0487C34.0033 26.5145 34.8098 26.2474 35.7215 26.2474C36.1072 25.2825 36.4084 24.2667 36.6251 23.2C36.8418 22.1333 36.9501 21.05 36.9501 19.95C36.9501 16.8167 36.1751 13.975 34.6251 11.425C33.0751 8.875 31.0334 6.85 28.5001 5.35V7.3C28.5001 8.455 28.0888 9.44375 27.2663 10.2663C26.4438 11.0888 25.4551 11.5 24.3001 11.5H22.2001V15.75C22.2001 16.3167 21.9918 16.8083 21.5751 17.225C21.1584 17.6417 20.6668 17.85 20.1001 17.85H18.0001V21.4011C18.0001 22.167 17.7357 22.8167 17.2068 23.35C16.678 23.8833 16.0257 24.15 15.2501 24.15C14.7834 24.15 14.3418 24.0417 13.9251 23.825C13.5084 23.6083 13.1668 23.3167 12.9001 22.95L9.54625 17.85H7.4501V19.9345C7.4501 21.0115 7.09176 21.9417 6.3751 22.725C5.65843 23.5083 4.78343 23.9667 3.7501 24.1C4.68343 27.7333 6.66258 30.7583 9.68755 33.175C12.7125 35.5917 16.1834 36.8 20.1001 36.8ZM24.323 24.15C23.7411 24.15 23.2418 23.9417 22.8251 23.525C22.4084 23.1083 22.2001 22.6167 22.2001 22.05C22.2001 21.4833 22.4084 20.9917 22.8251 20.575C23.2418 20.1583 23.7411 19.95 24.323 19.95H26.3771C26.9591 19.95 27.4584 20.1583 27.8751 20.575C28.2918 20.9917 28.5001 21.4833 28.5001 22.05C28.5001 22.6167 28.2918 23.1083 27.8751 23.525C27.4584 23.9417 26.9591 24.15 26.3771 24.15H24.323ZM29.2193 17.85C28.5398 17.85 27.9834 17.575 27.5501 17.025C27.1168 16.475 27.0096 15.8683 27.2286 15.2048L28.0501 12.9C28.2168 12.4667 28.47 12.125 28.8097 11.875C29.1495 11.625 29.5232 11.5 29.9308 11.5C30.6103 11.5 31.1668 11.775 31.6001 12.325C32.0334 12.875 32.1406 13.4818 31.9215 14.1453L31.1001 16.45C30.9334 16.8833 30.6802 17.225 30.3405 17.475C30.0007 17.725 29.627 17.85 29.2193 17.85ZM20.1134 40C17.3556 40 14.7639 39.475 12.3384 38.425C9.91286 37.375 7.79176 35.9417 5.9751 34.125C4.15843 32.3083 2.7251 30.186 1.6751 27.758C0.625098 25.33 0.100098 22.7356 0.100098 19.975C0.100098 17.2144 0.625098 14.6201 1.6751 12.1921C2.7251 9.76402 4.15843 7.65 5.9751 5.85C7.79176 4.05 9.91411 2.625 12.3421 1.575C14.7701 0.525 17.3645 0 20.1251 0C22.8857 0 25.48 0.525 27.908 1.575C30.3361 2.625 32.4501 4.05 34.2501 5.85C36.0501 7.65 37.4751 9.76667 38.5251 12.2C39.5751 14.6333 40.1001 17.2289 40.1001 19.9867C40.1001 22.7445 39.5751 25.3362 38.5251 27.7617C37.4751 30.1872 36.0501 32.3053 34.2501 34.1158C32.4501 35.9263 30.3334 37.3597 27.9001 38.4158C25.4668 39.4719 22.8712 40 20.1134 40Z" fill="white"/>
</svg>
