<svg width="36" height="38" viewBox="0 0 36 38" fill="none" xmlns="http://www.w3.org/2000/svg">
<path d="M8.3441 6.1C7.64803 6.1 7.05833 6.34363 6.575 6.8309C6.09167 7.31813 5.85 7.9098 5.85 8.6059C5.85 9.30197 6.09363 9.89167 6.5809 10.375C7.06813 10.8583 7.6598 11.1 8.3559 11.1C9.05197 11.1 9.64167 10.8564 10.125 10.3691C10.6083 9.88187 10.85 9.2902 10.85 8.5941C10.85 7.89803 10.6064 7.30833 10.1191 6.825C9.63187 6.34167 9.0402 6.1 8.3441 6.1ZM8.3441 26.8C7.64803 26.8 7.05833 27.0436 6.575 27.5309C6.09167 28.0181 5.85 28.6098 5.85 29.3059C5.85 30.002 6.09363 30.5917 6.5809 31.075C7.06813 31.5583 7.6598 31.8 8.3559 31.8C9.05197 31.8 9.64167 31.5564 10.125 31.0691C10.6083 30.5819 10.85 29.9902 10.85 29.2941C10.85 28.598 10.6064 28.0083 10.1191 27.525C9.63187 27.0417 9.0402 26.8 8.3441 26.8ZM1.7 0H34.25C34.7833 0 35.2083 0.158333 35.525 0.475C35.8417 0.791667 36 1.22188 36 1.76565V15.2C36 15.7808 35.8417 16.2677 35.525 16.6607C35.2083 17.0536 34.7833 17.25 34.25 17.25H1.7C1.2 17.25 0.791667 17.0536 0.475 16.6607C0.158333 16.2677 0 15.7808 0 15.2V1.76565C0 1.22188 0.158333 0.791667 0.475 0.475C0.791667 0.158333 1.2 0 1.7 0ZM3 3V14.25H33V3H3ZM1.7 20.65H34.05C34.55 20.65 35 20.8583 35.4 21.275C35.8 21.6917 36 22.1671 36 22.7013V35.9C36 36.5667 35.8 37.075 35.4 37.425C35 37.775 34.55 37.95 34.05 37.95H1.95C1.41667 37.95 0.958333 37.775 0.575 37.425C0.191667 37.075 0 36.5667 0 35.9V22.7013C0 22.1671 0.158333 21.6917 0.475 21.275C0.791667 20.8583 1.2 20.65 1.7 20.65ZM3 23.65V34.95H33V23.65H3Z" fill="white"/>
</svg>
