<svg width="50" height="50" viewBox="0 0 50 50" fill="none" xmlns="http://www.w3.org/2000/svg">
<path d="M8.875 39.0625C11.5 37.2292 14.1042 35.8229 16.6875 34.8438C19.2708 33.8646 22.0417 33.375 25 33.375C27.9583 33.375 30.7396 33.8646 33.3438 34.8438C35.9479 35.8229 38.5625 37.2292 41.1875 39.0625C43.0208 36.8125 44.3229 34.5417 45.0938 32.25C45.8646 29.9583 46.25 27.5417 46.25 25C46.25 18.9583 44.2188 13.9062 40.1562 9.84375C36.0938 5.78125 31.0417 3.75 25 3.75C18.9583 3.75 13.9062 5.78125 9.84375 9.84375C5.78125 13.9062 3.75 18.9583 3.75 25C3.75 27.5417 4.14583 29.9583 4.9375 32.25C5.72917 34.5417 7.04167 36.8125 8.875 39.0625ZM24.9884 26.875C22.5795 26.875 20.5521 26.0482 18.9062 24.3946C17.2604 22.741 16.4375 20.7098 16.4375 18.3009C16.4375 15.892 17.2643 13.8646 18.9179 12.2188C20.5715 10.5729 22.6027 9.75 25.0116 9.75C27.4205 9.75 29.4479 10.5768 31.0938 12.2304C32.7396 13.884 33.5625 15.9152 33.5625 18.3241C33.5625 20.733 32.7357 22.7604 31.0821 24.4062C29.4285 26.0521 27.3973 26.875 24.9884 26.875ZM25.0292 50C21.5931 50 18.3542 49.3438 15.3125 48.0312C12.2708 46.7188 9.61458 44.9271 7.34375 42.6562C5.07292 40.3854 3.28125 37.734 1.96875 34.7021C0.65625 31.6702 0 28.4306 0 24.9834C0 21.5361 0.65625 18.3021 1.96875 15.2812C3.28125 12.2604 5.07292 9.61458 7.34375 7.34375C9.61458 5.07292 12.266 3.28125 15.2979 1.96875C18.3298 0.65625 21.5694 0 25.0166 0C28.4639 0 31.6979 0.65625 34.7188 1.96875C37.7396 3.28125 40.3854 5.07292 42.6562 7.34375C44.9271 9.61458 46.7188 12.2611 48.0312 15.2833C49.3438 18.3054 50 21.5346 50 24.9707C50 28.4069 49.3438 31.6458 48.0312 34.6875C46.7188 37.7292 44.9271 40.3854 42.6562 42.6562C40.3854 44.9271 37.7389 46.7188 34.7168 48.0312C31.6946 49.3438 28.4654 50 25.0292 50ZM25 46.25C27.2917 46.25 29.5312 45.9167 31.7188 45.25C33.9062 44.5833 36.0625 43.4167 38.1875 41.75C36.0625 40.25 33.8958 39.1042 31.6875 38.3125C29.4792 37.5208 27.25 37.125 25 37.125C22.75 37.125 20.5208 37.5208 18.3125 38.3125C16.1042 39.1042 13.9375 40.25 11.8125 41.75C13.9375 43.4167 16.0938 44.5833 18.2812 45.25C20.4688 45.9167 22.7083 46.25 25 46.25ZM25 23.125C26.4167 23.125 27.5729 22.6771 28.4688 21.7812C29.3646 20.8854 29.8125 19.7292 29.8125 18.3125C29.8125 16.8958 29.3646 15.7396 28.4688 14.8438C27.5729 13.9479 26.4167 13.5 25 13.5C23.5833 13.5 22.4271 13.9479 21.5312 14.8438C20.6354 15.7396 20.1875 16.8958 20.1875 18.3125C20.1875 19.7292 20.6354 20.8854 21.5312 21.7812C22.4271 22.6771 23.5833 23.125 25 23.125Z" fill="white"/>
</svg>
