<svg width="17" height="14" viewBox="0 0 17 14" fill="none" xmlns="http://www.w3.org/2000/svg">
<path d="M1.44995 13.7332C1.11662 13.7332 0.824951 13.6082 0.574951 13.3582C0.324951 13.1082 0.199951 12.8166 0.199951 12.4832V1.6499C0.199951 1.31657 0.324951 1.0249 0.574951 0.774902C0.824951 0.524902 1.11662 0.399902 1.44995 0.399902H15.6166C15.95 0.399902 16.2416 0.524902 16.4916 0.774902C16.7416 1.0249 16.8666 1.31657 16.8666 1.6499V12.4832C16.8666 12.8166 16.7416 13.1082 16.4916 13.3582C16.2416 13.6082 15.95 13.7332 15.6166 13.7332H1.44995ZM1.44995 12.4832H15.6166V3.3999H1.44995V12.4832ZM4.78328 10.9832L3.90828 10.1082L6.05412 7.94157L3.88745 5.7749L4.78328 4.8999L7.82495 7.94157L4.78328 10.9832ZM8.74162 11.0666V9.81657H13.325V11.0666H8.74162Z" fill="white"/>
</svg>
