<svg width="20" height="20" viewBox="0 0 20 20" fill="none" xmlns="http://www.w3.org/2000/svg">
<path d="M9.43758 13.5226H10.6876V10.2215H14.1667V9.02832H10.6876V5.56809H9.43758V9.02832H5.83342V10.2215H9.43758V13.5226ZM10.0056 17.4999C8.85654 17.4999 7.77668 17.2911 6.76604 16.8735C5.7554 16.4559 4.87161 15.8858 4.11467 15.1633C3.35772 14.4407 2.7605 13.5966 2.323 12.6309C1.8855 11.6652 1.66675 10.6334 1.66675 9.53542C1.66675 8.43744 1.8855 7.40561 2.323 6.43993C2.7605 5.47424 3.35772 4.63343 4.11467 3.91753C4.87161 3.20162 5.75592 2.63485 6.7676 2.21724C7.77927 1.79963 8.86024 1.59082 10.0105 1.59082C11.1608 1.59082 12.2417 1.79963 13.2534 2.21724C14.2651 2.63485 15.1459 3.20162 15.8959 3.91753C16.6459 4.63343 17.2397 5.47529 17.6772 6.44309C18.1147 7.4109 18.3334 8.44322 18.3334 9.54008C18.3334 10.6369 18.1147 11.6677 17.6772 12.6324C17.2397 13.5971 16.6459 14.4395 15.8959 15.1596C15.1459 15.8797 14.264 16.4498 13.2501 16.8698C12.2362 17.2899 11.1547 17.4999 10.0056 17.4999ZM10.0105 16.3067C11.9758 16.3067 13.6459 15.6472 15.0209 14.328C16.3959 13.0089 17.0834 11.4114 17.0834 9.53542C17.0834 7.65948 16.3972 6.06525 15.0248 4.75275C13.6524 3.44025 11.9775 2.784 10.0001 2.784C8.04175 2.784 6.37161 3.43901 4.98967 4.74901C3.60772 6.05903 2.91675 7.65782 2.91675 9.54537C2.91675 11.4147 3.60772 13.0089 4.98967 14.328C6.37161 15.6472 8.04522 16.3067 10.0105 16.3067Z" fill="white"/>
</svg>
