<svg width="20" height="20" viewBox="0 0 20 20" fill="none" xmlns="http://www.w3.org/2000/svg">
<path d="M4.44995 15.7332C4.11662 15.7332 3.82495 15.6082 3.57495 15.3582C3.32495 15.1082 3.19995 14.8166 3.19995 14.4832V3.6499C3.19995 3.31657 3.32495 3.0249 3.57495 2.7749C3.82495 2.5249 4.11662 2.3999 4.44995 2.3999H18.6166C18.95 2.3999 19.2416 2.5249 19.4916 2.7749C19.7416 3.0249 19.8666 3.31657 19.8666 3.6499V14.4832C19.8666 14.8166 19.7416 15.1082 19.4916 15.3582C19.2416 15.6082 18.95 15.7332 18.6166 15.7332H4.44995ZM4.44995 14.4832H18.6166V5.3999H4.44995V14.4832ZM7.78328 12.9832L6.90828 12.1082L9.05412 9.94157L6.88745 7.7749L7.78328 6.8999L10.825 9.94157L7.78328 12.9832ZM11.7416 13.0666V11.8166H16.325V13.0666H11.7416Z" fill="white"/>
</svg>
