<svg width="18" height="18" viewBox="0 0 18 18" fill="none" xmlns="http://www.w3.org/2000/svg">
<path d="M9.01885 15.0376C7.38135 15.0376 5.97197 14.447 4.79072 13.2657C3.60947 12.0845 3.01885 10.6751 3.01885 9.0376V8.19385L1.51885 9.69385L0.787598 8.9626L3.58135 6.16885L6.3751 8.9626L5.64385 9.69385L4.14385 8.19385V9.0376C4.14385 10.3751 4.62197 11.522 5.57822 12.4782C6.53447 13.4345 7.68135 13.9126 9.01885 13.9126C9.38135 13.9126 9.7251 13.8813 10.0501 13.8188C10.3751 13.7563 10.6813 13.6626 10.9688 13.5376L11.7751 14.3438C11.3251 14.5938 10.872 14.772 10.4157 14.8782C9.95947 14.9845 9.49385 15.0376 9.01885 15.0376ZM14.4376 11.8688L11.6438 9.0751L12.3938 8.3251L13.8751 9.80635V9.0376C13.8751 7.7001 13.397 6.55322 12.4407 5.59697C11.4845 4.64072 10.3376 4.1626 9.0001 4.1626C8.6376 4.1626 8.29385 4.19697 7.96885 4.26572C7.64385 4.33447 7.3376 4.41885 7.0501 4.51885L6.24385 3.7126C6.69385 3.4626 7.14697 3.2876 7.60322 3.1876C8.05947 3.0876 8.5251 3.0376 9.0001 3.0376C10.6376 3.0376 12.047 3.62822 13.2282 4.80947C14.4095 5.99072 15.0001 7.4001 15.0001 9.0376V9.84385L16.5001 8.34385L17.2313 9.0751L14.4376 11.8688Z" fill="white"/>
</svg>
