<svg width="180" height="180" viewBox="0 0 180 180" fill="none" xmlns="http://www.w3.org/2000/svg">
<path d="M90 157.5C71.125 157.5 55.1562 154.594 42.0938 148.781C29.0313 142.969 22.5 135.875 22.5 127.5V52.5C22.5 44.25 29.0937 37.1875 42.2812 31.3125C55.4688 25.4375 71.375 22.5 90 22.5C108.625 22.5 124.531 25.4375 137.719 31.3125C150.906 37.1875 157.5 44.25 157.5 52.5V127.5C157.5 135.875 150.969 142.969 137.906 148.781C124.844 154.594 108.875 157.5 90 157.5ZM90 66C100.75 66 111.781 64.3438 123.094 61.0312C134.406 57.7188 141.688 54 144.938 49.875C141.562 45.875 134.219 42.1875 122.906 38.8125C111.594 35.4375 100.625 33.75 90 33.75C79 33.75 67.9375 35.375 56.8125 38.625C45.6875 41.875 38.375 45.625 34.875 49.875C38.375 54.25 45.625 58.0312 56.625 61.2188C67.625 64.4062 78.75 66 90 66ZM89.8125 106.125C95.0625 106.125 100.312 105.844 105.562 105.281C110.812 104.719 115.844 103.875 120.656 102.75C125.469 101.625 130.062 100.25 134.438 98.625C138.812 97 142.75 95.1875 146.25 93.1875V64.125C142.625 66.125 138.625 67.9375 134.25 69.5625C129.875 71.1875 125.25 72.5625 120.375 73.6875C115.5 74.8125 110.5 75.6875 105.375 76.3125C100.25 76.9375 95.0625 77.25 89.8125 77.25C84.5625 77.25 79.3125 76.9375 74.0625 76.3125C68.8125 75.6875 63.7812 74.8125 58.9688 73.6875C54.1562 72.5625 49.5938 71.1875 45.2812 69.5625C40.9688 67.9375 37.125 66.125 33.75 64.125V93.1875C37.125 95.1875 40.9375 97 45.1875 98.625C49.4375 100.25 53.9688 101.625 58.7812 102.75C63.5938 103.875 68.625 104.719 73.875 105.281C79.125 105.844 84.4375 106.125 89.8125 106.125ZM90 146.25C96 146.25 102.188 145.719 108.562 144.656C114.938 143.594 120.781 142.188 126.094 140.438C131.406 138.688 135.906 136.75 139.594 134.625C143.281 132.5 145.5 130.312 146.25 128.062V104.625C142.75 106.625 138.812 108.406 134.438 109.969C130.062 111.531 125.469 112.875 120.656 114C115.844 115.125 110.844 115.969 105.656 116.531C100.469 117.094 95.1875 117.375 89.8125 117.375C84.4375 117.375 79.125 117.094 73.875 116.531C68.625 115.969 63.5938 115.125 58.7812 114C53.9688 112.875 49.4375 111.531 45.1875 109.969C40.9375 108.406 37.125 106.625 33.75 104.625V128.25C34.375 130.375 36.5 132.531 40.125 134.719C43.75 136.906 48.25 138.844 53.625 140.531C59 142.219 64.875 143.594 71.25 144.656C77.625 145.719 83.875 146.25 90 146.25Z" fill="white"/>
</svg>
