<svg width="180" height="180" viewBox="0 0 180 180" fill="none" xmlns="http://www.w3.org/2000/svg">
<g filter="url(#filter0_d_7_3120)">
<path d="M89.4427 133.875C91.4393 133.875 93.125 133.186 94.5 131.807C95.875 130.429 96.5625 128.741 96.5625 126.745C96.5625 124.748 95.8732 123.062 94.4948 121.688C93.1162 120.312 91.4287 119.625 89.4323 119.625C87.4357 119.625 85.75 120.314 84.375 121.693C83 123.071 82.3125 124.759 82.3125 126.755C82.3125 128.752 83.0018 130.438 84.3803 131.812C85.7588 133.188 87.4463 133.875 89.4427 133.875ZM83.25 106.125H93.9375C93.9375 102.25 94.5625 99.0938 95.8125 96.6562C97.0625 94.2188 99.2326 91.4549 102.323 88.3648C106.483 84.2049 109.375 80.5312 111 77.3438C112.625 74.1562 113.438 70.8125 113.438 67.3125C113.438 60.6875 111.312 55.4375 107.062 51.5625C102.812 47.6875 97.0923 45.75 89.9019 45.75C83.4187 45.75 77.908 47.2812 73.3699 50.3438C68.8316 53.4062 65.5 57.625 63.375 63L73.3125 67.125C75.0625 63.625 77.325 60.9688 80.1 59.1562C82.875 57.3438 86.1125 56.4375 89.8125 56.4375C93.8125 56.4375 96.9688 57.4375 99.2812 59.4375C101.594 61.4375 102.75 64.1936 102.75 67.7059C102.75 70.1936 102.062 72.5938 100.688 74.9062C99.3125 77.2188 97 79.9375 93.75 83.0625C89.125 87.4375 86.2188 91.1875 85.0312 94.3125C83.8438 97.4375 83.25 101.375 83.25 106.125ZM33.75 157.5C30.75 157.5 28.125 156.375 25.875 154.125C23.625 151.875 22.5 149.25 22.5 146.25V33.75C22.5 30.75 23.625 28.125 25.875 25.875C28.125 23.625 30.75 22.5 33.75 22.5H146.25C149.25 22.5 151.875 23.625 154.125 25.875C156.375 28.125 157.5 30.75 157.5 33.75V146.25C157.5 149.25 156.375 151.875 154.125 154.125C151.875 156.375 149.25 157.5 146.25 157.5H33.75ZM33.75 146.25H146.25V33.75H33.75V146.25Z" fill="white"/>
</g>
<defs>
<filter id="filter0_d_7_3120" x="-4" y="0" width="188" height="188" filterUnits="userSpaceOnUse" color-interpolation-filters="sRGB">
<feFlood flood-opacity="0" result="BackgroundImageFix"/>
<feColorMatrix in="SourceAlpha" type="matrix" values="0 0 0 0 0 0 0 0 0 0 0 0 0 0 0 0 0 0 127 0" result="hardAlpha"/>
<feOffset dy="4"/>
<feGaussianBlur stdDeviation="2"/>
<feComposite in2="hardAlpha" operator="out"/>
<feColorMatrix type="matrix" values="0 0 0 0 0 0 0 0 0 0 0 0 0 0 0 0 0 0 0.25 0"/>
<feBlend mode="normal" in2="BackgroundImageFix" result="effect1_dropShadow_7_3120"/>
<feBlend mode="normal" in="SourceGraphic" in2="effect1_dropShadow_7_3120" result="shape"/>
</filter>
</defs>
</svg>
