<svg width="180" height="180" viewBox="0 0 180 180" fill="none" xmlns="http://www.w3.org/2000/svg">
<g clip-path="url(#clip0_7_3118)">
<path d="M39.75 131.25C28.5 131.25 19.0625 127.156 11.4375 118.969C3.8125 110.781 0 101 0 89.625C0 78.375 3.84375 68.75 11.5312 60.75C19.2188 52.75 28.625 48.75 39.75 48.75C44.25 48.75 48.5938 49.5 52.7812 51C56.9688 52.5 60.6875 54.8125 63.9375 57.9375L81.375 74.8125L73.5 82.6875L56.8125 66.375C54.5625 64.125 51.9688 62.5 49.0312 61.5C46.0938 60.5 43 60 39.75 60C31.75 60 25 62.9062 19.5 68.7188C14 74.5312 11.25 81.5 11.25 89.625C11.25 97.875 13.9688 105 19.4062 111C24.8438 117 31.625 120 39.75 120C42.875 120 45.9062 119.5 48.8438 118.5C51.7812 117.5 54.4375 115.938 56.8125 113.812L116.062 57.9375C119.312 54.8125 123.031 52.5 127.219 51C131.406 49.5 135.688 48.75 140.062 48.75C151.312 48.75 160.781 52.75 168.469 60.75C176.156 68.75 180 78.375 180 89.625C180 101 176.156 110.781 168.469 118.969C160.781 127.156 151.312 131.25 140.062 131.25C135.688 131.25 131.375 130.531 127.125 129.094C122.875 127.656 119.188 125.375 116.062 122.25L99 105.375L106.875 97.5L123.188 113.812C125.312 115.938 127.875 117.5 130.875 118.5C133.875 119.5 136.938 120 140.062 120C148.188 120 155 117 160.5 111C166 105 168.75 97.875 168.75 89.625C168.75 81.5 165.969 74.5312 160.406 68.7188C154.844 62.9062 148.062 60 140.062 60C136.938 60 133.906 60.5625 130.969 61.6875C128.031 62.8125 125.438 64.4375 123.188 66.5625L63.9375 122.438C60.6875 125.438 56.9375 127.656 52.6875 129.094C48.4375 130.531 44.125 131.25 39.75 131.25Z" fill="white"/>
</g>
<defs>
<clipPath id="clip0_7_3118">
<rect width="180" height="180" fill="white"/>
</clipPath>
</defs>
</svg>
