<svg width="180" height="131" viewBox="0 0 180 131" fill="none" xmlns="http://www.w3.org/2000/svg">
<path d="M102.273 77.7273C95.4545 77.7273 89.6591 75.3409 84.8864 70.5682C80.1136 65.7955 77.7273 60 77.7273 53.1818C77.7273 46.3636 80.1136 40.5682 84.8864 35.7955C89.6591 31.0227 95.4545 28.6364 102.273 28.6364C109.091 28.6364 114.886 31.0227 119.659 35.7955C124.432 40.5682 126.818 46.3636 126.818 53.1818C126.818 60 124.432 65.7955 119.659 70.5682C114.886 75.3409 109.091 77.7273 102.273 77.7273ZM36.8182 106.364C33.4432 106.364 30.554 105.162 28.1506 102.759C25.7472 100.355 24.5455 97.4659 24.5455 94.0909V12.2727C24.5455 8.89773 25.7472 6.00852 28.1506 3.60511C30.554 1.2017 33.4432 0 36.8182 0H167.727C171.102 0 173.991 1.2017 176.395 3.60511C178.798 6.00852 180 8.89773 180 12.2727V94.0909C180 97.4659 178.798 100.355 176.395 102.759C173.991 105.162 171.102 106.364 167.727 106.364H36.8182ZM57.2727 94.0909H147.273C147.273 88.3636 149.25 83.5227 153.205 79.5682C157.159 75.6136 162 73.6364 167.727 73.6364V32.7273C162 32.7273 157.159 30.75 153.205 26.7955C149.25 22.8409 147.273 18 147.273 12.2727H57.2727C57.2727 18 55.2955 22.8409 51.3409 26.7955C47.3864 30.75 42.5455 32.7273 36.8182 32.7273V73.6364C42.5455 73.6364 47.3864 75.6136 51.3409 79.5682C55.2955 83.5227 57.2727 88.3636 57.2727 94.0909ZM155.455 130.909H12.2727C8.89773 130.909 6.00852 129.707 3.60511 127.304C1.2017 124.901 0 122.011 0 118.636V24.5455H12.2727V118.636H155.455V130.909Z" fill="white"/>
</svg>
