<svg width="41" height="28" viewBox="0 0 41 28" fill="none" xmlns="http://www.w3.org/2000/svg">
<path d="M3.81545 28C2.54879 28 1.55712 27.575 0.840455 26.725C0.123788 25.875 -0.134545 24.7 0.0654545 23.2L2.46545 6.45C2.73212 4.68333 3.55712 3.16667 4.94045 1.9C6.32379 0.633333 7.89879 0 9.66546 0H31.3155C33.0821 0 34.6571 0.633333 36.0405 1.9C37.4238 3.16667 38.2488 4.68333 38.5155 6.45L40.8655 23.2C41.0655 24.7 40.8071 25.875 40.0905 26.725C39.3738 27.575 38.3821 28 37.1155 28C36.3488 28 35.6988 27.875 35.1655 27.625C34.6321 27.375 34.1821 27.0667 33.8155 26.7L28.6155 21.5H12.3155L7.11545 26.7C6.74879 27.0667 6.29879 27.375 5.76545 27.625C5.23212 27.875 4.58212 28 3.81545 28ZM4.71545 24.8L11.0155 18.5H29.9155L36.2155 24.8C36.3821 24.9667 36.6821 25.1167 37.1155 25.25C37.4155 25.25 37.6405 25.1 37.7905 24.8C37.9405 24.5 37.9821 24.2 37.9155 23.9L35.5155 6.95C35.3488 5.78333 34.8571 4.83333 34.0405 4.1C33.2238 3.36667 32.3155 3 31.3155 3H9.61546C8.61545 3 7.70712 3.36667 6.89045 4.1C6.07379 4.83333 5.58212 5.78333 5.41545 6.95L3.01545 23.9C2.94879 24.2 2.99045 24.5 3.14045 24.8C3.29045 25.1 3.51545 25.25 3.81545 25.25C4.04879 25.25 4.34879 25.1 4.71545 24.8ZM31.4655 16C31.9988 16 32.4655 15.8 32.8655 15.4C33.2655 15 33.4655 14.5333 33.4655 14C33.4655 13.4667 33.2655 13 32.8655 12.6C32.4655 12.2 31.9988 12 31.4655 12C30.9321 12 30.4655 12.2 30.0655 12.6C29.6655 13 29.4655 13.4667 29.4655 14C29.4655 14.5333 29.6655 15 30.0655 15.4C30.4655 15.8 30.9321 16 31.4655 16ZM27.2155 9.5C27.7488 9.5 28.2155 9.3 28.6155 8.9C29.0155 8.5 29.2155 8.03333 29.2155 7.5C29.2155 6.96667 29.0155 6.5 28.6155 6.1C28.2155 5.7 27.7488 5.5 27.2155 5.5C26.6821 5.5 26.2155 5.7 25.8155 6.1C25.4155 6.5 25.2155 6.96667 25.2155 7.5C25.2155 8.03333 25.4155 8.5 25.8155 8.9C26.2155 9.3 26.6821 9.5 27.2155 9.5ZM11.4655 15.75H13.9655V12H17.7155V9.5H13.9655V5.75H11.4655V9.5H7.71545V12H11.4655V15.75Z" fill="white"/>
</svg>
