<svg width="16" height="14" viewBox="0 0 16 14" fill="none" xmlns="http://www.w3.org/2000/svg">
<path d="M3.6875 9.0625H4.8125V4.9375H3.6875V9.0625ZM7.4375 9.0625H8.5625V4.9375H7.4375V9.0625ZM11.1875 9.0625H12.3125V4.9375H11.1875V9.0625ZM1.625 11.125H14.375V2.875H1.625V11.125ZM2.9375 13.75V12.25H1.625C1.325 12.25 1.0625 12.1375 0.8375 11.9125C0.6125 11.6875 0.5 11.425 0.5 11.125V2.875C0.5 2.575 0.6125 2.3125 0.8375 2.0875C1.0625 1.8625 1.325 1.75 1.625 1.75H2.9375V0.25H4.0625V1.75H7.4375V0.25H8.5625V1.75H11.9375V0.25H13.0625V1.75H14.375C14.675 1.75 14.9375 1.8625 15.1625 2.0875C15.3875 2.3125 15.5 2.575 15.5 2.875V11.125C15.5 11.425 15.3875 11.6875 15.1625 11.9125C14.9375 12.1375 14.675 12.25 14.375 12.25H13.0625V13.75H11.9375V12.25H8.5625V13.75H7.4375V12.25H4.0625V13.75H2.9375Z" fill="white"/>
</svg>
