<svg width="180" height="180" viewBox="0 0 180 180" fill="none" xmlns="http://www.w3.org/2000/svg">
<path d="M141.188 66.75L132.938 49.125L115.313 40.875L132.938 32.625L141.188 15L149.438 32.625L167.063 40.875L149.438 49.125L141.188 66.75ZM156.938 120.938L151.358 109.08L139.5 103.5L151.358 97.92L156.938 86.0625L162.518 97.92L174.375 103.5L162.518 109.08L156.938 120.938ZM58.875 165L57 147.75C55.25 147.5 53.4375 146.938 51.5625 146.062C49.6875 145.188 48.0625 144.125 46.6875 142.875L32.0625 149.062L15.5625 122.062L29.8125 112.688C29.1875 110.562 28.875 108.688 28.875 107.062C28.875 105.438 29.1875 103.562 29.8125 101.438L15.5625 92.0625L32.0625 65.0625L46.6875 71.25C48.0625 70 49.6875 68.9375 51.5625 68.0625C53.4375 67.1875 55.25 66.625 57 66.375L58.8891 49.125H90.375L92.25 66.375C94 66.625 95.8125 67.1875 97.6875 68.0625C99.5625 68.9375 101.188 70 102.563 71.25L117.188 65.0625L133.688 92.0625L119.438 101.438C120.063 103.562 120.375 105.438 120.375 107.062C120.375 108.688 120.063 110.562 119.438 112.688L133.688 122.062L117.188 149.062L102.563 142.875C101.188 144.125 99.5625 145.188 97.6875 146.062C95.8125 146.938 94 147.5 92.25 147.75L90.3609 165H58.875ZM74.625 128.625C80.875 128.625 86.0313 126.594 90.0938 122.531C94.1563 118.469 96.1875 113.312 96.1875 107.062C96.1875 100.812 94.1563 95.6562 90.0938 91.5938C86.0313 87.5312 80.875 85.5 74.625 85.5C68.375 85.5 63.2188 87.5312 59.1563 91.5938C55.0938 95.6562 53.0625 100.812 53.0625 107.062C53.0625 113.312 55.0938 118.469 59.1563 122.531C63.2188 126.594 68.375 128.625 74.625 128.625ZM74.625 117.375C71.625 117.375 69.1563 116.406 67.2188 114.469C65.2813 112.531 64.3125 110.062 64.3125 107.062C64.3125 104.062 65.2813 101.594 67.2188 99.6562C69.1563 97.7188 71.625 96.75 74.625 96.75C77.625 96.75 80.0938 97.7188 82.0313 99.6562C83.9688 101.594 84.9375 104.062 84.9375 107.062C84.9375 110.062 83.9688 112.531 82.0313 114.469C80.0938 116.406 77.625 117.375 74.625 117.375ZM68.25 153.75H81L82.5 139.5C86.125 138.625 89.4375 137.375 92.4375 135.75C95.4375 134.125 98.173 132 100.644 129.375L112.875 134.812L119.063 125.062L107.438 116.812C108.813 113.688 109.5 110.438 109.5 107.062C109.5 103.688 108.813 100.438 107.438 97.3125L119.063 89.0625L112.875 79.3125L100.644 84.75C98.173 82.125 95.4375 80 92.4375 78.375C89.4375 76.75 86.125 75.5 82.5 74.625L81 60.375H68.25L66.75 74.625C63.125 75.5 59.8125 76.75 56.8125 78.375C53.8125 80 51.0771 82.125 48.6062 84.75L36.375 79.3125L30.1875 89.0625L41.8125 97.3125C40.4375 100.438 39.75 103.688 39.75 107.062C39.75 110.438 40.4375 113.688 41.8125 116.812L30.1875 125.062L36.375 134.812L48.6062 129.375C51.0771 132 53.8125 134.125 56.8125 135.75C59.8125 137.375 63.125 138.625 66.75 139.5L68.25 153.75Z" fill="white"/>
</svg>
