<svg width="180" height="162" viewBox="0 0 180 162" fill="none" xmlns="http://www.w3.org/2000/svg">
<path d="M81 162V148.5H157.5V80.1C157.5 71.4 155.625 63.0375 151.875 55.0125C148.125 46.9875 143.1 39.9 136.8 33.75C130.5 27.6 123.3 22.6875 115.2 19.0125C107.1 15.3375 98.7 13.5 90 13.5C81.3 13.5 72.9 15.3375 64.8 19.0125C56.7 22.6875 49.5 27.6 43.2 33.75C36.9 39.9 31.875 46.9875 28.125 55.0125C24.375 63.0375 22.5 71.4 22.5 80.1V135H18C13.05 135 8.8125 133.238 5.2875 129.712C1.7625 126.188 0 121.95 0 117V99C0 95.55 0.825 92.5125 2.475 89.8875C4.125 87.2625 6.3 85.125 9 83.475L9.675 71.55C11.025 60.6 14.1375 50.7 19.0125 41.85C23.8875 33 29.9625 25.5 37.2375 19.35C44.5125 13.2 52.6875 8.4375 61.7625 5.0625C70.8375 1.6875 80.25 0 90 0C99.9 0 109.387 1.6875 118.462 5.0625C127.537 8.4375 135.675 13.2375 142.875 19.4625C150.075 25.6875 156.113 33.1875 160.988 41.9625C165.863 50.7375 168.975 60.525 170.325 71.325L171 83.025C173.7 84.375 175.875 86.3625 177.525 88.9875C179.175 91.6125 180 94.5 180 97.65V118.35C180 121.65 179.175 124.575 177.525 127.125C175.875 129.675 173.7 131.625 171 132.975V148.5C171 152.212 169.678 155.391 167.034 158.034C164.391 160.678 161.212 162 157.5 162H81ZM63 96.75C61.2 96.75 59.625 96.075 58.275 94.725C56.925 93.375 56.25 91.7625 56.25 89.8875C56.25 88.0125 56.925 86.4375 58.275 85.1625C59.625 83.8875 61.2375 83.25 63.1125 83.25C64.9875 83.25 66.5625 83.8969 67.8375 85.1906C69.1125 86.4844 69.75 88.0875 69.75 90C69.75 91.8 69.1031 93.375 67.8094 94.725C66.5156 96.075 64.9125 96.75 63 96.75ZM117 96.75C115.2 96.75 113.625 96.075 112.275 94.725C110.925 93.375 110.25 91.7625 110.25 89.8875C110.25 88.0125 110.925 86.4375 112.275 85.1625C113.625 83.8875 115.237 83.25 117.112 83.25C118.987 83.25 120.562 83.8969 121.837 85.1906C123.112 86.4844 123.75 88.0875 123.75 90C123.75 91.8 123.103 93.375 121.809 94.725C120.516 96.075 118.912 96.75 117 96.75ZM36.225 85.05C35.625 76.2 36.8625 68.175 39.9375 60.975C43.0125 53.775 47.1375 47.6625 52.3125 42.6375C57.4875 37.6125 63.45 33.75 70.2 31.05C76.95 28.35 83.7 27 90.45 27C104.1 27 115.575 31.3125 124.875 39.9375C134.175 48.5625 139.875 59.325 141.975 72.225C127.875 72.075 115.462 68.2875 104.737 60.8625C94.0125 53.4375 85.725 43.8 79.875 31.95C77.475 44.1 72.4125 54.8625 64.6875 64.2375C56.9625 73.6125 47.475 80.55 36.225 85.05Z" fill="white"/>
</svg>
