<svg width="180" height="180" viewBox="0 0 180 180" fill="none" xmlns="http://www.w3.org/2000/svg">
<path d="M26.25 150C23.25 150 20.625 148.875 18.375 146.625C16.125 144.375 15 141.75 15 138.75V41.25C15 38.25 16.125 35.625 18.375 33.375C20.625 31.125 23.25 30 26.25 30H153.75C156.75 30 159.375 31.125 161.625 33.375C163.875 35.625 165 38.25 165 41.25V138.75C165 141.75 163.875 144.375 161.625 146.625C159.375 148.875 156.75 150 153.75 150H26.25ZM26.25 138.75H153.75V57H26.25V138.75ZM56.25 125.25L48.375 117.375L67.6875 97.875L48.1875 78.375L56.25 70.5L83.625 97.875L56.25 125.25ZM91.875 126V114.75H133.125V126H91.875Z" fill="white"/>
</svg>
