<svg width="180" height="180" viewBox="0 0 180 180" fill="none" xmlns="http://www.w3.org/2000/svg">
<path d="M90 165C79.625 165 69.875 163.031 60.75 159.094C51.625 155.156 43.6875 149.812 36.9375 143.062C30.1875 136.312 24.8438 128.375 20.9062 119.25C16.9688 110.125 15 100.375 15 90C15 79.625 16.9688 69.875 20.9062 60.75C24.8438 51.625 30.1875 43.6875 36.9375 36.9375C43.6875 30.1875 51.625 24.8438 60.75 20.9062C69.875 16.9688 79.625 15 90 15C100.375 15 110.125 16.9688 119.25 20.9062C128.375 24.8438 136.312 30.1875 143.062 36.9375C149.812 43.6875 155.156 51.625 159.094 60.75C163.031 69.875 165 79.625 165 90C165 100.375 163.031 110.125 159.094 119.25C155.156 128.375 149.812 136.312 143.062 143.062C136.312 149.812 128.375 155.156 119.25 159.094C110.125 163.031 100.375 165 90 165ZM81.9375 153.562V138.188C77.5625 138.188 73.875 136.562 70.875 133.312C67.875 130.062 66.375 126.25 66.375 121.875V113.625L27.9375 75.1875C27.3125 77.6875 26.875 80.1562 26.625 82.5938C26.375 85.0312 26.25 87.5 26.25 90C26.25 106.25 31.5312 120.438 42.0938 132.562C52.6562 144.688 65.9375 151.688 81.9375 153.562ZM137.062 133.312C139.812 130.312 142.219 127.125 144.281 123.75C146.344 120.375 148.094 116.844 149.531 113.156C150.969 109.469 152.031 105.688 152.719 101.812C153.406 97.9375 153.75 94 153.75 90C153.75 76.75 150.125 64.7188 142.875 53.9062C135.625 43.0938 125.938 35.1875 113.812 30.1875V33.5625C113.812 37.9375 112.312 41.75 109.312 45C106.312 48.25 102.625 49.875 98.25 49.875H81.9375V66.1875C81.9375 68.3125 81.0938 70.0625 79.4062 71.4375C77.7188 72.8125 75.8125 73.5 73.6875 73.5H58.125V90H106.5C108.625 90 110.375 90.8125 111.75 92.4375C113.125 94.0625 113.812 95.9375 113.812 98.0625V121.875H121.875C125.5 121.875 128.688 122.938 131.438 125.062C134.188 127.188 136.062 129.938 137.062 133.312Z" fill="white"/>
</svg>
